# xmcd
# Copyright (C) 1995-1998 Ti Kan
#
# Track frame offsets:
#       150
#       22227
#       43302
#       67192
#       89107
#       110032
#       129365
#       154560
#       176332
#       186262
#
# Disc length: 2790 seconds
#
# Revision: 0
# Processed by: cddbd v1.5.1PL0 Copyright (c) Steve Scherf et al.
# Submitted via: CD-Transfer v1.0
#
DISCID=920ae40a
DTITLE=Chronofossilien - 
DYEAR=93
DGENRE=
TTITLE0=Eskimo
TTITLE1=Ds Lied vo de Bahnhöf
TTITLE2=Dr Hansjakobli und s Babettli
TTITLE3=Di Strass won i drann wone
TTITLE4=Dr Sidi Abdel Assar vo El Hama
TTITLE5=Warum syt dir so truurig?
TTITLE6=Es het einisch eine gseit
TTITLE7=Hemmige
TTITLE8=Dialog im Strandbad
TTITLE9=I thought I knew
EXTD=
EXTT0=
EXTT1=
EXTT2=
EXTT3=
EXTT4=
EXTT5=
EXTT6=
EXTT7=
EXTT8=
EXTT9=
PLAYORDER=
